<?xml version="1.0" standalone="no"?><!DOCTYPE svg PUBLIC "-//W3C//DTD SVG 1.1//EN" "http://www.w3.org/Graphics/SVG/1.1/DTD/svg11.dtd"><svg width="200" height="200" viewBox="0 0 200 200" version="1.1" xmlns="http://www.w3.org/2000/svg" xmlns:xlink="http://www.w3.org/1999/xlink"><defs><style type="text/css"><![CDATA[
@font-face { font-family: ifont; src: url(http://at.alicdn.com/t/font_1442373896_4754455.eot?#iefix) format(embedded-opentype), url(http://at.alicdn.com/t/font_1442373896_4754455.woff) format(woff), url(http://at.alicdn.com/t/font_1442373896_4754455.ttf) format(truetype), url(http://at.alicdn.com/t/font_1442373896_4754455.svg#ifont) format(svg); }

]]></style></defs><g class="transform-group"><g transform="scale(0.1953125, 0.1953125)"><path d="M512.034133 228.181333c-64.7168 0-116.974933 52.4288-116.974933 116.872533 0 64.6144 52.258133 116.9408 116.974933 116.9408 64.580267 0 116.872533-52.3264 116.872533-116.9408C628.906667 280.610133 576.6144 228.181333 512.034133 228.181333zM512 430.660267c-47.3088 0-85.469867-38.4-85.469867-85.6064 0-47.104 38.161067-85.469867 85.469867-85.469867 47.138133 0 85.4016 38.365867 85.4016 85.469867C597.4016 392.2944 559.138133 430.660267 512 430.660267zM572.416 769.9456c-16.349867 20.855467-32.5632 30.037333-47.854933 33.928533-4.3008 1.024-8.465067 1.672533-12.561067 2.082133-4.061867-0.4096-8.2944-0.989867-12.561067-2.082133-15.291733-3.8912-31.5392-13.073067-47.889067-33.928533 0 0-84.411733 74.683733-11.332267 160.085333l35.464533-33.245867 35.601067 55.466667 0 2.013867 0.068267 0.068267L512 953.344l0.580267 0.989867 0.068267-0.068267 0-2.013867 35.669333-55.466667 35.396267 33.245867C656.827733 844.5952 572.416 769.9456 572.416 769.9456zM578.594133 894.532267l-32.1536-36.113067L512 907.195733l-34.440533-48.776533-32.187733 36.113067c-29.730133-61.44 8.8064-88.337067 8.8064-88.337067 15.394133 18.670933 20.8896 18.5344 42.564267 22.664533 2.116267 0.682667 8.635733 0.785067 14.574933 1.194667l0 0.1024c0.2048 0 0.477867-0.034133 0.7168-0.068267 0.2048 0.034133 0.443733 0.068267 0.682667 0.068267l0-0.1024c5.973333-0.4096 12.458667-0.546133 14.574933-1.194667 21.640533-4.130133 27.136-3.9936 42.5984-22.664533C569.856 806.1952 608.324267 833.058133 578.594133 894.532267zM707.6864 496.093867C817.083733 241.732267 548.9664 89.1904 512 69.666133c-36.9664 19.524267-305.015467 172.066133-195.6864 426.427733 0 0-163.328 124.654933 16.247467 327.7824l102.877867-135.099733 49.902933 49.834667L512 743.799467l26.692267-5.188267 49.902933-49.834667 102.877867 135.099733C871.048533 620.782933 707.6864 496.093867 707.6864 496.093867zM690.4832 772.1984l-99.464533-132.608-64.341333 64.341333L512 707.447467l-14.677333-3.515733-64.341333-64.341333-99.4304 132.608c-131.618133-150.1184 21.435733-267.195733 21.435733-267.195733C254.600533 250.9824 475.101867 140.834133 512 119.534933c36.898133 21.2992 257.4336 131.447467 157.013333 385.467733C669.013333 505.0368 822.101333 622.08 690.4832 772.1984z" fill="#ffcc99"></path></g></g></svg>